<svg id="exitIcon" xmlns="http://www.w3.org/2000/svg" xmlns:xlink="http://www.w3.org/1999/xlink" version="1.1" preserveAspectRatio="none" x="0px" y="0px" viewBox="0 0 100 125">
  <defs>
    <g id="a">
      <path fill="#000000" stroke="none" d=" M 82.1 22.1 Q 83.0017578125 21.24453125 83 20 83.0017578125 18.75546875 82.1 17.85 81.24453125 16.9982421875 80 17 78.7552734375 16.998046875 77.85 17.85 L 50 45.75 22.1 17.85 Q 21.24453125 16.998046875 20 17 18.75546875 16.9982421875 17.85 17.85 16.9982421875 18.75546875 17 20 16.998046875 21.24453125 17.85 22.1 L 45.75 50 17.85 77.85 Q 16.998046875 78.7552734375 17 80 16.9982421875 81.24453125 17.85 82.1 18.75546875 83.0017578125 20 83 21.24453125 83.0017578125 22.1 82.1 L 50 54.25 77.85 82.1 Q 78.7552734375 83.0017578125 80 83 81.24453125 83.0017578125 82.1 82.1 83.0017578125 81.24453125 83 80 83.0017578125 78.7552734375 82.1 77.85 L 54.25 50 82.1 22.1 Z"/>
    </g>
  </defs>
  <g transform="matrix( 1, 0, 0, 1, 0,0) ">
    <use xlink:href="#a"/>
  </g>
  <!-- <text x="0" y="115" fill="#000000" font-size="5px" font-weight="bold" font-family="'Helvetica Neue', Helvetica, Arial-Unicode, Arial, Sans-serif">Created by Richard Kunák</text><text x="0" y="120" fill="#000000" font-size="5px" font-weight="bold" font-family="'Helvetica Neue', Helvetica, Arial-Unicode, Arial, Sans-serif">from the Noun Project</text> -->
</svg>

<svg id="brainIcon" xmlns="http://www.w3.org/2000/svg" xmlns:xlink="http://www.w3.org/1999/xlink" version="1.1" x="0px" y="0px" viewBox="0 0 120 150" style="enable-background:new 0 0 120 120;" xml:space="preserve">
	<style type="text/css">
	.st0{fill:none;stroke:#000000;stroke-width:34;stroke-miterlimit:10;}
	</style>
	<path class="st0" d="M-2178.2-962.4"/>
	<g>
		<path d="M103.1,39.5c0,0-0.3-1.2-0.4-1.7c-0.1-0.5-0.5-1.9-0.6-1.9C95.2,15.8,72.8,7.8,55.3,10.5c-13,2-22.6,8.4-27.9,18.3   c-1.2,2.3-2.1,4.6-2.7,7.1l-0.4,1.5c0,0,0,0.1,0,0.2l-0.3,1.8c-0.4,3-0.5,6.1-0.1,9.4c0,0.1,0,0.1,0,0.2c0,0.2,0,0.6,0,0.9   c0,1.2-0.3,2.4-0.8,3.5l-7.3,15.4c-0.6,1.3-0.5,2.9,0.3,4.1c0.8,1.2,2.1,2,3.6,2h4v20.1c0,3,2.3,5.3,5.3,5.3l11.6,0.2   c1.2,0,2.3,1.1,2.3,2.3v5.5c0,1.1,0.9,1.9,1.9,1.9h41.9c0.6,0,1.2-0.3,1.6-0.8c0.4-0.5,0.4-1.2,0.2-1.8l-0.3-0.7   c-3.3-8.2-3.8-15.4-1.3-21.1c1.4-3.4,3.4-5.3,4.8-6.6l0.4-0.4C103.2,67.3,107,54.2,103.1,39.5z M89.3,75.9L89,76.2   c-1.4,1.4-3.9,3.8-5.6,7.9c-2.7,6.3-2.5,13.7,0.5,22.1H46.7v-3.6c0-3.4-2.7-6.2-6-6.2L29,96.2c-0.9,0-1.5-0.7-1.5-1.5V73.8   c0-1.6-1.3-3-2.9-3h-4.9c-0.2,0-0.3-0.1-0.4-0.2c-0.1-0.2-0.1-0.3,0-0.5l7.3-15.4c0.8-1.6,1.2-3.3,1.2-5.1c0-0.5,0-1-0.1-1.5   c-0.3-2.9-0.3-5.7,0.1-8.2l0.3-1.7l0.4-1.4c0.6-2.2,1.4-4.3,2.4-6.3c4.7-8.8,13.3-14.5,25.1-16.3c16-2.5,36.4,4.7,42.6,22.8   c0,0,0.4,1.3,0.5,1.7c0.1,0.4,0.4,1.6,0.4,1.6C102.9,53.7,99.5,65.7,89.3,75.9z"/><path d="M90.9,41.3c-0.5,0-1,0.1-1.5,0.3l-5.7-8.2c0.7-0.9,1.1-1.9,1.1-3.1c0-2.8-2.2-5-5-5c-1.7,0-3.2,0.8-4.1,2.1L65,23.8   c0-0.1,0-0.1,0-0.2c0-2.8-2.2-5-5-5s-5,2.2-5,5c0,0.5,0.1,1,0.3,1.5l-10.7,7.3c-0.9-0.7-1.9-1.1-3.1-1.1c-2.8,0-5,2.2-5,5   s2.2,5,5,5c1.7,0,3.2-0.8,4.1-2.1L59,43.8c0,0.1,0,0.1,0,0.2c0,2.8,2.2,5,5,5c0.8,0,1.6-0.2,2.3-0.6l11.7,12.2   c-0.4,0.7-0.7,1.6-0.7,2.5c0,2.8,2.2,5,5,5s5-2.2,5-5c0-1.4-0.6-2.7-1.5-3.6l4.3-8.3c0.3,0.1,0.6,0.1,0.9,0.1c2.8,0,5-2.2,5-5   C95.9,43.6,93.6,41.3,90.9,41.3z M68.8,43c-0.1-0.4-0.2-0.7-0.4-1l8.6-7.5c0.8,0.5,1.7,0.8,2.7,0.8c0.5,0,1-0.1,1.5-0.3l5.7,8.2   c-0.3,0.4-0.6,0.8-0.8,1.3L68.8,43z M74.8,30.1c0,0.1,0,0.1,0,0.2c0,0.7,0.2,1.4,0.5,2.1l-8.6,7.5c-0.6-0.4-1.4-0.7-2.2-0.7   l-2.1-11c0.7-0.4,1.3-0.9,1.8-1.5L74.8,30.1z M46.4,36.5c0-0.1,0-0.1,0-0.2c0-0.5-0.1-1-0.3-1.5l10.7-7.3c0.7,0.6,1.6,1,2.6,1.1   l2.1,11c-0.7,0.4-1.3,0.9-1.8,1.5L46.4,36.5z M83.2,58.2c-0.3-0.1-0.6-0.1-0.9-0.1c-0.8,0-1.6,0.2-2.3,0.6L68.3,46.4   c0.1-0.2,0.2-0.4,0.3-0.6L86,47.3c0.2,1,0.7,1.9,1.4,2.6L83.2,58.2z"
		/>
	</g>
	<!-- <text x="0" y="135" fill="#000000" font-size="5px" font-weight="bold" font-family="'Helvetica Neue', Helvetica, Arial-Unicode, Arial, Sans-serif">
		Created by Symbolon
	</text>
	<text x="0" y="140" fill="#000000" font-size="5px" font-weight="bold" font-family="'Helvetica Neue', Helvetica, Arial-Unicode, Arial, Sans-serif">
		from the Noun Project
	</text> -->
</svg>

<svg id="bulbIcon" xmlns="http://www.w3.org/2000/svg" xmlns:xlink="http://www.w3.org/1999/xlink" version="1.1" x="0px" y="0px" viewBox="0 0 48 60" enable-background="new 0 0 48 48" xml:space="preserve">
  <g>
    <path d="M36.6,21.7c0-7-5.7-12.6-12.6-12.6c-0.5,0-1,0-1.5,0.1c-5.5,0.6-10.2,5.1-11,10.5c-0.5,3.6,0.4,7,2.6,9.8   c2.4,3,3.6,6.4,3.6,9.8c-0.5,0.5-0.8,1.2-0.8,2c0,0.7,0.3,1.4,0.7,1.9c-0.4,0.5-0.7,1.2-0.7,1.9c0,1.6,1.3,2.9,2.9,2.9h8.3   c1.6,0,2.9-1.3,2.9-2.9c0-0.7-0.3-1.4-0.7-1.9c0.4-0.5,0.7-1.2,0.7-1.9c0-0.8-0.3-1.4-0.8-2c0-3.6,1.2-6.9,3.3-9.4   C35.6,27.6,36.6,24.7,36.6,21.7z M18.9,41.3c0-0.5,0.4-0.9,0.9-0.9h8.3c0.5,0,0.9,0.4,0.9,0.9c0,0.5-0.4,0.9-0.9,0.9h-8.3   C19.4,42.2,18.9,41.8,18.9,41.3z M28.2,46h-8.3c-0.5,0-0.9-0.4-0.9-0.9c0-0.5,0.4-0.9,0.9-0.9h8.3c0.5,0,0.9,0.4,0.9,0.9   C29.1,45.6,28.6,46,28.2,46z M28.3,38.4H25v-8.7l3.8-3.8c0.4-0.4,0.4-1,0-1.4c-0.4-0.4-1-0.4-1.4,0L24,27.9l-3.4-3.4   c-0.4-0.4-1-0.4-1.4,0c-0.4,0.4-0.4,1,0,1.4l3.8,3.8v8.7h-3.3c-0.2-3.6-1.6-7-4-10.1C13.8,25.9,13,23,13.5,20   c0.7-4.6,4.6-8.3,9.3-8.9c0.4,0,0.8-0.1,1.2-0.1c5.9,0,10.6,4.8,10.6,10.6c0,2.5-0.9,5-2.5,6.9C29.8,31.2,28.5,34.7,28.3,38.4z"/>
    <path d="M45,21h-5.7c-0.6,0-1,0.4-1,1c0,0.6,0.4,1,1,1H45c0.6,0,1-0.4,1-1C46,21.4,45.5,21,45,21z"/>
    <path d="M9.7,22c0-0.6-0.4-1-1-1H3c-0.6,0-1,0.4-1,1c0,0.6,0.4,1,1,1h5.7C9.3,23,9.7,22.5,9.7,22z"/>
    <path d="M24,7.4c0.6,0,1-0.4,1-1V1c0-0.6-0.4-1-1-1c-0.6,0-1,0.4-1,1v5.4C23,7,23.4,7.4,24,7.4z"/>
    <path d="M34.9,12.1c0.3,0,0.5-0.1,0.7-0.3l3.9-3.9c0.4-0.4,0.4-1,0-1.4c-0.4-0.4-1-0.4-1.4,0l-3.9,3.9c-0.4,0.4-0.4,1,0,1.4   C34.4,12,34.7,12.1,34.9,12.1z"/>
    <path d="M13.9,32.1c-0.4-0.4-1-0.4-1.4,0l-4,4c-0.4,0.4-0.4,1,0,1.4c0.5,0.4,0.9,0.4,1.4,0l4-4C14.3,33.1,14.3,32.5,13.9,32.1z"/>
    <path d="M39.6,36.1l-4.1-4.1c-0.4-0.4-1-0.4-1.4,0c-0.4,0.4-0.4,1,0,1.4l4.1,4.1c0.5,0.4,1,0.4,1.4,0   C39.9,37.2,39.9,36.5,39.6,36.1z"/>
    <path d="M12.3,11.7c0.2,0.2,0.5,0.3,0.7,0.3c0.3,0,0.5-0.1,0.7-0.3c0.4-0.4,0.4-1,0-1.4L9.9,6.4c-0.4-0.4-1-0.4-1.4,0   c-0.4,0.4-0.4,1,0,1.4L12.3,11.7z"/>
  </g>
  <!-- <text x="0" y="63" fill="#000000" font-size="5px" font-weight="bold" font-family="'Helvetica Neue', Helvetica, Arial-Unicode, Arial, Sans-serif">Created by Vectors Market</text>
  <text x="0" y="68" fill="#000000" font-size="5px" font-weight="bold" font-family="'Helvetica Neue', Helvetica, Arial-Unicode, Arial, Sans-serif">from the Noun Project</text> -->
</svg>
